<?xml version="1.0" encoding="UTF-8" standalone="no"?>
<svg
   xmlns:dc="http://purl.org/dc/elements/1.1/"
   xmlns:cc="http://creativecommons.org/ns#"
   xmlns:rdf="http://www.w3.org/1999/02/22-rdf-syntax-ns#"
   xmlns:svg="http://www.w3.org/2000/svg"
   xmlns="http://www.w3.org/2000/svg"
   xmlns:sodipodi="http://sodipodi.sourceforge.net/DTD/sodipodi-0.dtd"
   xmlns:inkscape="http://www.inkscape.org/namespaces/inkscape"
   inkscape:export-ydpi="300"
   inkscape:export-xdpi="300"
   inkscape:export-filename="/run/media/p-user/wd0/Documents/grin/creations/GRIN/raspi-grin/draft5.png"
   width="235.50404"
   height="241.90974"
   viewBox="0 0 235.50404 241.90974"
   version="1.1"
   xml:space="preserve"
   style="clip-rule:evenodd;fill-rule:evenodd;stroke-linejoin:round;stroke-miterlimit:1.41421"
   id="svg16"
   sodipodi:docname="draft7.svg"
   inkscape:version="1.0 (4035a4fb49, 2020-05-01)"><metadata
   id="metadata22"><rdf:RDF><cc:Work
       rdf:about=""><dc:format>image/svg+xml</dc:format><dc:type
         rdf:resource="http://purl.org/dc/dcmitype/StillImage" /><dc:title></dc:title></cc:Work></rdf:RDF></metadata><defs
   id="defs20" /><sodipodi:namedview
   fit-margin-bottom="0"
   fit-margin-right="0"
   fit-margin-left="0"
   fit-margin-top="0"
   inkscape:document-rotation="0"
   pagecolor="#ffffff"
   bordercolor="#666666"
   borderopacity="1"
   objecttolerance="10"
   gridtolerance="10"
   guidetolerance="10"
   inkscape:pageopacity="0"
   inkscape:pageshadow="2"
   inkscape:window-width="1920"
   inkscape:window-height="1009"
   id="namedview18"
   showgrid="false"
   inkscape:snap-bbox="false"
   inkscape:snap-global="true"
   inkscape:zoom="1.0375809"
   inkscape:cx="-65.755804"
   inkscape:cy="159.79441"
   inkscape:window-x="0"
   inkscape:window-y="42"
   inkscape:window-maximized="1"
   inkscape:current-layer="svg16" />
    <g
   transform="matrix(1.03804,0,0,1.03804,-45.67376,8.3507465)"
   id="g5">
        <g
   id="Layer1">
            <circle
   cx="136"
   cy="133"
   id="circle2"
   r="92" />
        </g>
    </g>
    <g
   transform="matrix(1.06897,0,0,1.06897,-56.23456,-0.83945353)"
   id="g10"
   style="fill:#bb1042;fill-opacity:1">
        <g
   id="Layer2"
   style="fill:#bb1042;fill-opacity:1">
            <circle
   cx="141.75"
   cy="137.75"
   style="fill:#bb1042;fill-opacity:1"
   id="circle7"
   r="79.75" />
        </g>
    </g>
    <g
   transform="translate(-26.290987,22.410546)"
   id="g14">
        <path
   d="M 162,92 C 159.966,87.434 158.071,78.413 152.855,76.407 146.14,73.825 141.989,90.729 141,95 h -1 c -1.693,-7.318 -3.965,-17.69 -12,-20 -3.72,15.624 3.886,32.479 11,46 7.596,-3.63 11.297,-14.998 12,-23 h 1 l 8,24 c 6.436,-1.85 8.675,-8.219 10.999,-14 4.989,-12.408 9.175,-27.668 6.001,-41 -9.605,2.72 -12.527,16.455 -15,25 m -96,32 c 8.595,-4.104 12.685,-17.094 14,-26 h 1 c 1.017,4.293 3.736,15.368 9.1,16.079 6.834,0.904 10.417,-14.26 10.9,-19.079 h 1 c 2.179,7.529 4.475,17.32 12,21 2.776,-11.66 -0.548,-24.095 -4.812,-35 -1.096,-2.804 -3.347,-10.364 -7.213,-10.364 C 95.641,70.636 92.08,87.332 91,92 H 90 L 82,68 c -14.072,6.72 -21.716,42.453 -16,56 m -15,12 c 10.443,45.551 58.612,71.374 102,52.138 15.791,-7.001 28.317,-19.475 35.539,-35.138 1.866,-4.047 5.531,-11.372 3.394,-16.682 -2.128,-5.289 -22.767,3.353 -27.924,5.61 -0.724,0.322 -1.235,0.99 -1.354,1.774 0,0 0,0 0,0 -0.169,1.109 0.131,2.239 0.83,3.118 0.698,0.879 1.731,1.427 2.85,1.513 C 170.116,148.624 175,149 175,149 159.313,179.365 116.899,192.791 87,168.532 80.308,163.103 74.338,156.652 70.32,149 68.377,145.3 66.575,140.568 63.272,138.029 60.099,135.589 55.285,134.753 51,136 Z"
   style="fill-rule:nonzero"
   id="path12" />
    </g>
<path
   style="fill:none;stroke:#000000;stroke-width:10;stroke-linecap:round;stroke-linejoin:round;stroke-miterlimit:1.41421;stroke-dasharray:none;stroke-opacity:1"
   d="M 103.14636,82.259315 C 111.0418,47.024274 72.655623,76.028581 69.205523,4.9999925 139.03022,5.9980515 136.11104,44.816521 127.25543,66.54333 118.09522,80.033335 103.14636,82.259315 103.14636,82.259315 Z"
   id="path927"
   sodipodi:nodetypes="cccc" /><path
   style="fill:none;stroke:#000000;stroke-width:10;stroke-linecap:butt;stroke-linejoin:miter;stroke-miterlimit:1.41421;stroke-dasharray:none;stroke-opacity:1"
   d="m 113.25759,81.731759 c 0.3631,-3.685932 66.11694,-66.198727 115.29542,18.053506"
   id="path935"
   sodipodi:nodetypes="cc" /><path
   style="fill:none;stroke:#000000;stroke-width:10;stroke-linecap:square;stroke-linejoin:miter;stroke-miterlimit:1.41421;stroke-dasharray:none;stroke-opacity:1"
   d="m 228.55301,99.785265 c -75.05525,51.444815 -83.16256,-9.986272 -99.20875,-14.410558 0,0 -11.38814,-5.132822 -15.27013,-5.149446"
   id="path937"
   sodipodi:nodetypes="ccc" /><path
   style="fill:#75a928;fill-opacity:1;fill-rule:evenodd;stroke:#000000;stroke-width:3.32879;stroke-linecap:round;stroke-linejoin:miter;stroke-miterlimit:1.41421;stroke-dasharray:none"
   d="m 182.25598,64.614255 c -16.81754,-5.179541 -35.29877,-2.459475 -51.06731,4.824868 -3.8075,1.938732 -7.87984,3.527892 -11.33995,6.050868 -1.45864,1.733795 0.47077,3.747979 2.34656,3.781379 5.54218,1.272775 11.85766,2.155208 15.72136,6.823652 8.28881,8.868029 14.23232,20.501048 25.37276,26.285518 5.72657,2.41365 11.95412,4.10584 18.21544,3.25771 14.19433,-1.49491 27.10344,-8.39975 39.0165,-15.851252 2.026,-1.155415 0.9215,-3.624111 -0.28465,-4.952857 -9.29127,-13.516132 -21.95043,-25.441605 -37.98071,-30.219886 z"
   id="path939" /><path
   id="path1489"
   d="M 116.16659,21.724475 C 105.51749,13.747054 91.85975,11.322393 78.89268,10.244658 76.07301,9.6786925 72.840953,9.6766365 74.56909,13.458137 c 1.81133,12.613603 3.97215,26.613574 13.68941,35.798265 6.19007,5.955465 15.80489,8.712969 19.33362,17.054139 1.24285,2.616125 0.83378,5.685729 1.65317,8.33181 4.29703,-0.730595 7.95785,-3.947937 10.92793,-7.05406 5.17757,-5.516521 6.07537,-13.526122 6.75284,-20.726916 0.60773,-9.523538 -3.05286,-19.253156 -10.75944,-25.136892 z"
   style="fill:#75a928;fill-opacity:1;fill-rule:evenodd;stroke:#000000;stroke-width:1.44567;stroke-linecap:square;stroke-linejoin:miter;stroke-miterlimit:1.41421" /></svg>
