<!DOCTYPE svg PUBLIC "-//W3C//DTD SVG 20010904//EN" "http://www.w3.org/TR/2001/REC-SVG-20010904/DTD/svg10.dtd">
<svg version="1.0" xmlns="http://www.w3.org/2000/svg" width="1200px" height="1140px" viewBox="0 0 12000 11400" preserveAspectRatio="xMidYMid meet">
<g id="layer101" fill="#020202" stroke="none">
 <path d="M0 5700 l0 -5700 6000 0 6000 0 0 5700 0 5700 -6000 0 -6000 0 0 -5700z"/>
 </g>
<g id="layer102" fill="#ffffff" stroke="none">
 <path d="M0 5700 l0 -5700 6000 0 6000 0 0 5700 0 5700 -6000 0 -6000 0 0 -5700z m3655 4722 c1046 -466 2045 -1087 2830 -1760 1315 -1127 2303 -2562 3082 -4472 186 -458 416 -1109 568 -1609 l63 -206 76 -11 c41 -7 96 -22 121 -34 50 -24 98 -74 93 -98 -2 -11 -68 -37 -218 -85 -118 -38 -353 -113 -523 -168 -169 -54 -313 -99 -321 -99 -8 0 -18 14 -21 32 -4 18 -32 119 -62 223 -418 1464 -897 2626 -1496 3630 -598 1003 -1315 1828 -2197 2530 -718 572 -1578 1077 -2548 1496 -73 31 -136 60 -139 63 -4 3 38 52 93 108 116 120 259 285 370 426 l79 100 30 -13 c16 -7 71 -31 120 -53z m-1055 -5154 c206 -67 377 -124 380 -126 8 -6 -49 -263 -105 -468 -213 -783 -594 -1793 -926 -2456 l-68 -137 -103 34 c-57 19 -223 72 -370 120 -148 47 -268 90 -268 96 0 5 15 40 34 77 58 115 222 492 321 737 302 748 605 1685 706 2183 7 34 15 62 19 62 3 0 174 -55 380 -122z m3160 -517 l375 -57 -3 -70 c-4 -95 -47 -482 -78 -698 -80 -569 -262 -1473 -430 -2136 -80 -318 -93 -360 -107 -360 -7 0 -186 30 -399 67 -252 43 -388 71 -388 79 0 6 25 105 56 219 161 603 344 1513 438 2180 45 316 96 758 96 826 0 14 6 17 33 13 17 -3 201 -31 407 -63z"/>
 </g>

</svg>
