<?xml version="1.0" encoding="UTF-8" standalone="no"?>
<svg
   xmlns:dc="http://purl.org/dc/elements/1.1/"
   xmlns:cc="http://creativecommons.org/ns#"
   xmlns:rdf="http://www.w3.org/1999/02/22-rdf-syntax-ns#"
   xmlns:svg="http://www.w3.org/2000/svg"
   xmlns="http://www.w3.org/2000/svg"
   xmlns:sodipodi="http://sodipodi.sourceforge.net/DTD/sodipodi-0.dtd"
   xmlns:inkscape="http://www.inkscape.org/namespaces/inkscape"
   width="237.95042pt"
   height="257.99866pt"
   viewBox="0 0 237.95042 257.99866"
   version="1.1"
   id="svg17"
   sodipodi:docname="pigrin-yellow.cleaned.svg"
   inkscape:version="1.0.1 (3bc2e813f5, 2020-09-07)">
  <metadata
     id="metadata23">
    <rdf:RDF>
      <cc:Work
         rdf:about="">
        <dc:format>image/svg+xml</dc:format>
        <dc:type
           rdf:resource="http://purl.org/dc/dcmitype/StillImage" />
        <dc:title></dc:title>
      </cc:Work>
    </rdf:RDF>
  </metadata>
  <defs
     id="defs21" />
  <sodipodi:namedview
     pagecolor="#ffffff"
     bordercolor="#666666"
     borderopacity="1"
     objecttolerance="10"
     gridtolerance="10"
     guidetolerance="10"
     inkscape:pageopacity="0"
     inkscape:pageshadow="2"
     inkscape:window-width="1920"
     inkscape:window-height="1009"
     id="namedview19"
     showgrid="false"
     fit-margin-top="0"
     fit-margin-left="0"
     fit-margin-right="0"
     fit-margin-bottom="0"
     inkscape:zoom="2.3098739"
     inkscape:cx="171.96875"
     inkscape:cy="158.66485"
     inkscape:window-x="0"
     inkscape:window-y="42"
     inkscape:window-maximized="1"
     inkscape:current-layer="svg17" />
  <g
     id="surface1"
     transform="translate(-0.0234375,-0.00136153)">
    <path
       style="fill:#000000;fill-opacity:1;fill-rule:evenodd;stroke:none"
       d="M 191.34766,162.33594 C 191.34766,215.17187 148.51953,258 95.6875,258 42.855469,258 0.0234375,215.17187 0.0234375,162.33594 c 0,-52.83203 42.8320315,-95.660159 95.6640625,-95.660159 52.83203,0 95.66016,42.828129 95.66016,95.660159 z m 0,0"
       id="path2" />
    <path
       style="fill:#fdf000;fill-opacity:1;fill-rule:evenodd;stroke:none"
       d="m 180.875,162.33984 c 0,47.16016 -38.23438,85.39453 -85.398438,85.39453 -47.160156,0 -85.394531,-38.23437 -85.394531,-85.39453 0,-47.16406 38.234375,-85.398434 85.394531,-85.398434 47.164058,0 85.398438,38.234374 85.398438,85.398434 z m 0,0"
       id="path4" />
    <path
       style="fill:#000000;fill-opacity:1;fill-rule:nonzero;stroke:none"
       d="m 135.96484,130.28516 c -2.03906,-4.57422 -3.9375,-13.61328 -9.16015,-15.6211 -6.72656,-2.58593 -10.88672,14.34766 -11.875,18.625 h -1.00391 c -1.69531,-7.33203 -3.96875,-17.71875 -12.01953,-20.03515 -3.726562,15.65234 3.89453,32.53515 11.01953,46.07812 7.60938,-3.63672 11.31641,-15.02344 12.01953,-23.03906 h 1.00391 l 8.01172,24.04297 c 6.44531,-1.85547 8.6914,-8.23438 11.01953,-14.02344 4.99609,-12.42969 9.1875,-27.71875 6.00781,-41.07031 -9.62109,2.72265 -12.54687,16.48047 -15.02344,25.04297 m -96.164059,32.05468 c 8.609375,-4.11328 12.707031,-17.125 14.023438,-26.04687 h 1.003906 c 1.015625,4.30078 3.742187,15.39453 9.113281,16.10547 6.847656,0.90625 10.433594,-14.28125 10.917969,-19.10938 h 1.003906 c 2.179688,7.54297 4.480469,17.34766 12.019531,21.03516 2.78125,-11.67969 -0.550781,-24.13672 -4.820312,-35.05859 -1.097656,-2.8086 -3.351562,-10.38282 -7.226562,-10.38282 -6.34375,0 -9.910157,16.72657 -10.992188,21.40235 h -1.003906 l -8.011719,-24.04297 c -14.097656,6.73047 -21.753906,42.52734 -16.027344,56.09765 m -15.027343,12.01953 c 10.460937,45.62891 58.714843,71.4961 102.175782,52.22657 15.8164,-7.01172 28.36328,-19.50782 35.59765,-35.19922 1.8711,-4.05469 5.54297,-11.39063 3.40235,-16.71094 -2.13281,-5.29687 -22.80469,3.35938 -27.97266,5.62109 -0.72656,0.32032 -1.23828,0.99219 -1.35547,1.77735 -0.16797,1.10937 0.12891,2.24219 0.83203,3.12109 0.69922,0.88281 1.73438,1.42969 2.85547,1.51563 3.78516,0.29297 8.67969,0.66797 8.67969,0.66797 -15.71484,30.41796 -58.203124,43.86718 -88.152342,19.5664 -6.703126,-5.4375 -12.683594,-11.89844 -16.707032,-19.5664 -1.945312,-3.70313 -3.753906,-8.44532 -7.0625,-10.98829 -3.175781,-2.44531 -8,-3.28125 -12.292968,-2.03125 z m 0,0"
       id="path6" />
    <path
       style="fill:none;stroke:#000000;stroke-width:13.8852;stroke-linecap:butt;stroke-linejoin:miter;stroke-miterlimit:1.41421;stroke-opacity:1"
       d="M 74.80544,87.050846 C 66.156119,79.130752 136.34508,-2.055091 230.60239,61.621533"
       transform="matrix(1.001704,0,0,1.001704,0.0240906,0)"
       id="path8" />
    <path
       style="fill:none;stroke:#000000;stroke-width:13.8852;stroke-linecap:round;stroke-linejoin:miter;stroke-miterlimit:1.41421;stroke-opacity:1"
       d="M 230.60239,61.621533 C 158.7327,132.30964 124.18222,77.485119 102.65251,78.214345 c 0,0 -12.233058,1.817215 -20.020566,4.699022"
       transform="matrix(1.001704,0,0,1.001704,0.0240906,0)"
       id="path10" />
    <path
       style="fill:#73a826;fill-opacity:1;fill-rule:evenodd;stroke:#000000;stroke-width:3.75064;stroke-linecap:round;stroke-linejoin:miter;stroke-miterlimit:1.41421;stroke-opacity:1"
       d="m 159.52042,42.841043 c -22.78538,0.261273 -44.45937,8.391946 -60.970295,19.95817 -3.915202,2.959799 -8.294457,5.673923 -11.546726,9.074377 -1.103588,2.058991 2.078489,3.353659 4.402652,2.815514 7.335154,-0.49135 15.465829,-1.57934 22.091249,1.602737 13.75391,5.759714 25.72569,14.806794 41.76086,16.830688 8.01758,0.514748 16.36663,0.210579 23.73688,-2.476248 16.88529,-5.693421 30.02305,-16.039069 41.71796,-26.595295 2.03169,-1.688529 -0.31587,-3.657828 -2.33196,-4.531339 -16.84629,-9.788005 -37.20612,-17.076364 -58.86062,-16.678604 z m 0,0"
       transform="matrix(1.001704,0,0,1.001704,0.0240906,0)"
       id="path12" />
    <path
       style="fill:#73a826;fill-opacity:1;fill-rule:evenodd;stroke:#000000;stroke-width:11.2673;stroke-linecap:round;stroke-linejoin:round;stroke-miterlimit:1.41421;stroke-opacity:1"
       d="M 51.930366,87.085943 C 97.867694,25.990857 62.888252,19.408326 62.888252,19.408326 L 79.910021,5.634927 c 0,0 47.723349,19.006667 -7.635424,86.153938 -3.985394,4.839407 -20.344231,-4.702922 -20.344231,-4.702922 z m 0,0"
       transform="matrix(1.001704,0,0,1.001704,0.0240906,0)"
       id="path14" />
  </g>
</svg>
