<?xml version="1.0" encoding="UTF-8" standalone="no"?>
<svg
   xmlns:dc="http://purl.org/dc/elements/1.1/"
   xmlns:cc="http://creativecommons.org/ns#"
   xmlns:rdf="http://www.w3.org/1999/02/22-rdf-syntax-ns#"
   xmlns:svg="http://www.w3.org/2000/svg"
   xmlns="http://www.w3.org/2000/svg"
   xmlns:sodipodi="http://sodipodi.sourceforge.net/DTD/sodipodi-0.dtd"
   xmlns:inkscape="http://www.inkscape.org/namespaces/inkscape"
   width="235.59416pt"
   height="242.00185pt"
   viewBox="0 0 235.59416 242.00185"
   version="1.1"
   id="svg19"
   sodipodi:docname="pigrin-red.cleaned.svg"
   inkscape:version="1.0.1 (3bc2e813f5, 2020-09-07)">
  <metadata
     id="metadata25">
    <rdf:RDF>
      <cc:Work
         rdf:about="">
        <dc:format>image/svg+xml</dc:format>
        <dc:type
           rdf:resource="http://purl.org/dc/dcmitype/StillImage" />
        <dc:title></dc:title>
      </cc:Work>
    </rdf:RDF>
  </metadata>
  <defs
     id="defs23" />
  <sodipodi:namedview
     pagecolor="#ffffff"
     bordercolor="#666666"
     borderopacity="1"
     objecttolerance="10"
     gridtolerance="10"
     guidetolerance="10"
     inkscape:pageopacity="0"
     inkscape:pageshadow="2"
     inkscape:window-width="1920"
     inkscape:window-height="1009"
     id="namedview21"
     showgrid="false"
     fit-margin-top="0"
     fit-margin-left="0"
     fit-margin-right="0"
     fit-margin-bottom="0"
     inkscape:zoom="2.3294492"
     inkscape:cx="161.0625"
     inkscape:cy="157.33581"
     inkscape:window-x="0"
     inkscape:window-y="42"
     inkscape:window-maximized="1"
     inkscape:current-layer="svg19" />
  <g
     id="surface1"
     transform="translate(-0.203125,0.00185815)">
    <path
       style="fill:#000000;fill-opacity:1;fill-rule:evenodd;stroke:none"
       d="M 191.27344,146.46484 C 191.27344,199.22656 148.50391,242 95.738281,242 42.976562,242 0.203125,199.22656 0.203125,146.46484 c 0,-52.761715 42.773437,-95.535152 95.535156,-95.535152 52.765629,0 95.535159,42.773437 95.535159,95.535152 z m 0,0"
       id="path2" />
    <path
       style="fill:#ba0f3f;fill-opacity:1;fill-rule:evenodd;stroke:none"
       d="m 180.8125,146.46484 c 0,47.10157 -38.17969,85.28125 -85.28125,85.28125 -47.101562,0 -85.28125,-38.17968 -85.28125,-85.28125 0,-47.097652 38.179688,-85.281246 85.28125,-85.281246 47.10156,0 85.28125,38.183594 85.28125,85.281246 z m 0,0"
       id="path4" />
    <path
       style="fill:#000000;fill-opacity:1;fill-rule:nonzero;stroke:none"
       d="m 135.96484,114.45313 c -2.03515,-4.56641 -3.92968,-13.59375 -9.14843,-15.597661 -6.71875,-2.585938 -10.8711,14.328121 -11.85938,18.597661 h -1 c -1.69531,-7.32032 -3.96875,-17.695318 -12.00781,-20.007818 -3.718751,15.632818 3.89062,32.492188 11.00781,46.019528 7.59766,-3.63281 11.30078,-15.0039 12.00391,-23.00781 h 1 l 8.0039,24.00781 c 6.4375,-1.85156 8.67578,-8.22265 11,-14.0039 4.99219,-12.41406 9.17969,-27.67969 6.00391,-41.015628 -9.60938,2.71875 -12.53125,16.460938 -15.00391,25.007818 m -96.035152,32.01171 c 8.597656,-4.10547 12.6875,-17.10156 14.003906,-26.00781 h 1 c 1.015625,4.29297 3.738281,15.37109 9.101562,16.08203 6.839844,0.90625 10.421875,-14.26562 10.90625,-19.08593 h 1 c 2.179688,7.53125 4.476563,17.32812 12.003906,21.00781 2.777344,-11.66406 -0.546874,-24.10156 -4.8125,-35.01172 -1.097656,-2.80469 -3.347656,-10.367189 -7.214843,-10.367189 -6.339844,0 -9.898438,16.703129 -10.980469,21.371099 h -1 L 55.933594,90.445312 C 41.855469,97.167969 34.210938,132.91406 39.929688,146.46484 m -15.007813,12.00391 c 10.449219,45.57031 58.632813,71.40234 102.039065,52.16016 15.79687,-7.00391 28.32812,-19.48438 35.55078,-35.15235 1.86719,-4.05078 5.53515,-11.375 3.39453,-16.6875 -2.12891,-5.29297 -22.77344,3.35156 -27.93359,5.60938 -0.72266,0.32422 -1.23438,0.99218 -1.35547,1.77734 -0.16797,1.10938 0.13281,2.23828 0.83203,3.11719 0.69922,0.8789 1.73047,1.42969 2.85156,1.51562 3.78125,0.28907 8.66797,0.66407 8.66797,0.66407 -15.69141,30.3789 -58.121094,43.80859 -88.03125,19.54296 -6.695312,-5.43359 -12.667969,-11.88671 -16.6875,-19.54296 -1.945312,-3.69922 -3.746094,-8.4336 -7.050781,-10.97266 -3.175781,-2.44141 -7.992188,-3.27734 -12.277344,-2.03125 z m 0,0"
       id="path6" />
    <path
       style="fill:none;stroke:#000000;stroke-width:10;stroke-linecap:round;stroke-linejoin:round;stroke-miterlimit:1.41421;stroke-opacity:1"
       d="M 103.14809,82.258372 C 111.04359,47.025424 72.655566,76.030227 69.203729,4.998135 139.02924,5.997762 136.11236,44.815311 127.25629,66.54158 c -9.16065,13.49106 -24.1082,15.716792 -24.1082,15.716792 z m 0,0"
       transform="matrix(1.000373,0,0,1.000373,0.204045,0)"
       id="path8" />
    <path
       style="fill:none;stroke:#000000;stroke-width:10;stroke-linecap:butt;stroke-linejoin:miter;stroke-miterlimit:1.41421;stroke-opacity:1"
       d="M 113.2576,81.731225 C 113.62075,78.0451 179.37356,15.533267 228.55443,99.786989"
       transform="matrix(1.000373,0,0,1.000373,0.204045,0)"
       id="path10" />
    <path
       style="fill:none;stroke:#000000;stroke-width:10;stroke-linecap:square;stroke-linejoin:miter;stroke-miterlimit:1.41421;stroke-opacity:1"
       d="m 228.55443,99.786989 c -75.05793,51.441741 -83.16428,-9.988461 -99.20908,-14.412592 0,0 -11.39028,-5.130898 -15.27164,-5.150422"
       transform="matrix(1.000373,0,0,1.000373,0.204045,0)"
       id="path12" />
    <path
       style="fill:#73a826;fill-opacity:1;fill-rule:evenodd;stroke:#000000;stroke-width:3.32879;stroke-linecap:round;stroke-linejoin:miter;stroke-miterlimit:1.41421;stroke-opacity:1"
       d="m 182.2553,64.612612 c -16.81794,-5.177756 -35.29933,-2.456115 -51.06689,4.826324 -3.80717,1.940682 -7.87987,3.529933 -11.33951,6.05243 -1.4604,1.733728 0.47248,3.744696 2.34678,3.779839 5.5409,1.272963 11.85885,2.155446 15.72069,6.825579 8.28988,8.867785 14.23297,20.500166 25.37335,26.283166 5.72443,2.41316 11.95257,4.10784 18.21586,3.25659 14.19392,-1.49163 27.10317,-8.39921 39.01669,-15.849551 2.02659,-1.155819 0.92153,-3.623648 -0.28505,-4.951278 C 210.94381,81.317317 198.28447,69.392079 182.2553,64.612612 Z m 0,0"
       transform="matrix(1.000373,0,0,1.000373,0.204045,0)"
       id="path14" />
    <path
       style="fill:#73a826;fill-opacity:1;fill-rule:evenodd;stroke:#000000;stroke-width:1.44567;stroke-linecap:square;stroke-linejoin:miter;stroke-miterlimit:1.41421;stroke-opacity:1"
       d="M 116.16668,21.726269 C 105.5183,13.748777 91.859339,11.3239 78.891521,10.246177 c -2.819261,-0.566195 -6.05243,-0.5701 -4.322606,3.213645 1.811824,12.612482 3.971174,26.611165 13.690204,35.795239 6.189097,5.958714 15.802701,8.715498 19.332631,17.056136 1.24172,2.616211 0.83563,5.685379 1.65173,8.332829 4.29917,-0.734102 7.95797,-3.947746 10.92951,-7.055962 5.17776,-5.517472 6.07586,-13.526203 6.75139,-20.726642 0.60915,-9.52379 -3.04964,-19.254535 -10.7577,-25.135153 z m 0,0"
       transform="matrix(1.000373,0,0,1.000373,0.204045,0)"
       id="path16" />
  </g>
</svg>
